<svg xmlns="http://www.w3.org/2000/svg" viewBox="0 0 37.75 30.82"><defs><style>.cls-1{fill:#fff;}</style></defs><g id="Layer_2" data-name="Layer 2"><g id="Layer_1-2" data-name="Layer 1"><path class="cls-1" d="M15.85,19.64a3.72,3.72,0,0,1,.54-1.35l-2.08-2.08a6.59,6.59,0,0,0-1.4,3.43Z"/><path class="cls-1" d="M16.46,22.42a3.8,3.8,0,0,1-.57-1.28h-3a6.44,6.44,0,0,0,1.45,3.35Z"/><path class="cls-1" d="M20.3,13.78v3a3.8,3.8,0,0,1,1.28.57l2.07-2.07A6.44,6.44,0,0,0,20.3,13.78Z"/><path class="cls-1" d="M17.45,17.23a3.72,3.72,0,0,1,1.35-.54V13.75a6.59,6.59,0,0,0-3.43,1.4Z"/><path class="cls-1" d="M21.47,23.37a3.7,3.7,0,0,1-1.17.5v3a6.55,6.55,0,0,0,3.25-1.38Z"/><path class="cls-1" d="M18.8,23.91a3.66,3.66,0,0,1-1.23-.47l-2.1,2.09a6.56,6.56,0,0,0,3.33,1.32Z"/><path class="cls-1" d="M22.6,18.41a3.74,3.74,0,0,1,.47,1.23H26a6.56,6.56,0,0,0-1.32-3.33Z"/><path class="cls-1" d="M23,21.14a3.7,3.7,0,0,1-.5,1.17l2.08,2.08A6.55,6.55,0,0,0,26,21.14Z"/><path class="cls-1" d="M32.66,2,34.2,4.54l1.55,2.55L25.51,14.18a8.55,8.55,0,0,1-1.59,13.4A8.58,8.58,0,0,1,12.15,24.7a8.44,8.44,0,0,1-.51-1,6.74,6.74,0,0,1-2.31.5,2.92,2.92,0,0,1-.73-.08c-.88-.21-1.09-.38-1.28-.38s-.23.06-.5.23a5,5,0,0,1-2.57,1,1.92,1.92,0,0,1-1.72-1l-.2-.33c-1.38-2.28,2-3.8,2-3.8.71-.43.33-.2.69-1.65a6.13,6.13,0,0,1,2.05-2.72L32.66,2m0-2a1.91,1.91,0,0,0-.93.23L6.13,13.72a1.78,1.78,0,0,0-.27.17,7.79,7.79,0,0,0-2.79,3.85c-.06.23-.1.42-.13.59a5.88,5.88,0,0,0-2.77,3.1A4,4,0,0,0,.62,24.7l.2.33a3.9,3.9,0,0,0,3.43,2,6.3,6.3,0,0,0,3.29-1.09c.16.05.36.11.58.16a4.72,4.72,0,0,0,1.21.14,7.12,7.12,0,0,0,1.32-.13A10.57,10.57,0,0,0,28.51,14.77a1.4,1.4,0,0,1-.1-.16l8.48-5.88a2,2,0,0,0,.57-2.68L35.91,3.51,34.37,1a2,2,0,0,0-1.71-1Z"/></g></g></svg>