<svg xmlns="http://www.w3.org/2000/svg" viewBox="0 0 25.4 30.2"><defs><style>.cls-1{fill:#fff;}</style></defs><g id="Layer_2" data-name="Layer 2"><g id="Layer_1-2" data-name="Layer 1"><path class="cls-1" d="M22.9,22.5V20.7l-3-3.4V9.6l3.4-2.3V0H18V3.2H15.1V0H10.2V3.2H7.4V0H2.1V7.3L5.5,9.6v7.7l-3,3.4v1.8L0,25.3v4.9H25.4V25.3Zm1,4.2v1.9H1.5V26.7ZM11.8,4.7V1.5h1.9V4.7h5.9V1.5h2.2V6.2H3.7V1.5H5.9V4.7Zm6.8,13.4,2.1,2.4H4.7l2.1-2.4Zm-.2-8v6.5H7V10.1Zm1.5-2.3-1.3.8H6.8L5.5,7.8ZM4,23.1v-1H21.4v1l2,2.2H2Z"/></g></g></svg>