<svg xmlns="http://www.w3.org/2000/svg" viewBox="0 0 31.51 31.91"><defs><style>.cls-1{fill:#fff;}</style></defs><g id="Layer_2" data-name="Layer 2"><g id="Layer_1-2" data-name="Layer 1"><polygon class="cls-1" points="13.08 21.27 15.76 22.94 18.43 21.27 15.76 19.6 13.08 21.27"/><path class="cls-1" d="M31.25,11.5a5.6,5.6,0,0,0-5.72-4A9.4,9.4,0,0,0,19.84,9.6,5.06,5.06,0,0,0,18,7.28H19.4V0H12.12V7.28h1.42A5,5,0,0,0,11.67,9.6,9.4,9.4,0,0,0,6,7.51H6a5.6,5.6,0,0,0-5.72,4c-1.29,4.59,2.52,8,5.12,9.44v7h0c.05,2.63,5.23,4,10.37,4s10.31-1.38,10.36-4h0v-7C28.73,19.52,32.54,16.09,31.25,11.5ZM24.69,21.89,23.11,23l1.58,2.54v.22c-1.91-1.25-5.43-1.89-8.93-1.89s-7,.64-8.94,1.89v-.22L8.41,23,6.82,21.89v-.36l.61-.48C9.88,19.13,14.64,19,14.69,19l1,0,1.11,0s4.8.17,7.25,2.09l.61.48ZM15.76,16a12.51,12.51,0,0,0-2.95-5.33,3.18,3.18,0,0,1,2.95-2.56,3.17,3.17,0,0,1,2.93,2.56A12.54,12.54,0,0,0,15.76,16ZM13.56,5.84Zm3.21-2.2L18,2.46V4.82Zm-1-1L14.57,1.44h2.37Zm-1,1L13.56,4.82V2.46Zm1,1,1.18,1.18H14.57ZM1.64,11.89A4.21,4.21,0,0,1,6,9c3.35,0,7.52,2.7,8.66,8.57,0,0-5.23.15-8.1,2.4C6.54,19.92.23,16.94,1.64,11.89ZM15.76,30.47c-5.46,0-8.94-1.54-8.94-2.6s3.48-2.61,8.94-2.61,8.93,1.54,8.93,2.61S21.21,30.47,15.76,30.47ZM25,19.92c-2.87-2.25-8.1-2.4-8.1-2.4C18,11.65,22.18,9,25.53,9a4.21,4.21,0,0,1,4.34,2.94C31.28,16.94,25,19.92,25,19.92Z"/></g></g></svg>