<svg xmlns="http://www.w3.org/2000/svg" viewBox="0 0 22.74 29.89"><defs><style>.cls-1{fill:#fff;}</style></defs><g id="Layer_2" data-name="Layer 2"><g id="Layer_1-2" data-name="Layer 1"><path class="cls-1" d="M21.7,25a6,6,0,0,0-3.9-2.33c-.76-1.12-4-6.15-4-10.56h4.38l.06-.64c0-.1.17-2.4-3.31-4a5.35,5.35,0,0,0,.94-2.93,4.49,4.49,0,1,0-9,0,5.35,5.35,0,0,0,1,2.93c-3.48,1.6-3.32,3.9-3.32,4l.06.64H9c0,4.41-3.25,9.44-4,10.56A6,6,0,0,0,1,25a6.36,6.36,0,0,0-1,4.36l.1.58H22.57l.1-.58A6.26,6.26,0,0,0,21.7,25ZM9.19,8.38l1-.38-.78-.78A4.26,4.26,0,0,1,8.28,4.49a3.09,3.09,0,1,1,6.17,0,4.33,4.33,0,0,1-1.16,2.73L12.5,8l1.05.38c2.06.74,2.83,1.67,3.11,2.28H6.08C6.36,10.05,7.13,9.12,9.19,8.38ZM1.4,28.49a4.66,4.66,0,0,1,.78-2.73A4.78,4.78,0,0,1,5.47,24l.28-.05.17-.23c.18-.25,4.43-6.19,4.43-11.61h2c0,5.42,4.26,11.36,4.44,11.61l.17.23.28.05a4.79,4.79,0,0,1,3.28,1.8,4.69,4.69,0,0,1,.78,2.74Z"/></g></g></svg>