<svg xmlns="http://www.w3.org/2000/svg" viewBox="0 0 25.4 30.6"><defs><style>.cls-1{fill:#fff;}</style></defs><g id="Layer_2" data-name="Layer 2"><g id="Layer_1-2" data-name="Layer 1"><path class="cls-1" d="M25.2,29.7a12.78,12.78,0,0,0-5.4-8.3,9.07,9.07,0,0,0,2.1-5.9,9,9,0,0,0-.9-4l4-9.2L16.3,4.4,12.7,0,9.1,4.4.4,2.3l4,9.2a9,9,0,0,0-.9,4,9.43,9.43,0,0,0,2.1,5.9A12.42,12.42,0,0,0,.2,29.7l-.2.9H25.4ZM3,4.4,9.7,6l3-3.7,3,3.7,6.7-1.6L20,9.9a9.43,9.43,0,0,0-7.4-3.7A9.14,9.14,0,0,0,5.2,9.9Zm15.9,6.5H6.5a7.75,7.75,0,0,1,12.4,0ZM1.8,29.1a11.49,11.49,0,0,1,5.3-6.9l.9-.4-.7-.7A7.64,7.64,0,0,1,5,15.6a7.11,7.11,0,0,1,.7-3.2H19.8a8.33,8.33,0,0,1,.7,3.2,7.47,7.47,0,0,1-2.3,5.5l-.7.7.9.5a11.49,11.49,0,0,1,5.3,6.9L1.8,29.1Z"/></g></g></svg>