<svg xmlns="http://www.w3.org/2000/svg" viewBox="0 0 36.79 26.64"><defs><style>.cls-1{fill:#fff;}</style></defs><g id="Layer_2" data-name="Layer 2"><g id="Layer_1-2" data-name="Layer 1"><path class="cls-1" d="M22.54,8.47A1.41,1.41,0,0,0,23.9,7a1.36,1.36,0,1,0-2.71,0A1.4,1.4,0,0,0,22.54,8.47Z"/><path class="cls-1" d="M36.28,15.4l-3.23-.47,1.29-6.32A.68.68,0,0,0,34.19,8a.7.7,0,0,0-.54-.26H31a.69.69,0,0,0-.68.54l-1.48,6-1.06-.16C27.41,11.85,25.25,0,18.83,0a17.75,17.75,0,0,0-5.26,1.36C12.65,1.12,9.65.41,8,1s-6.16,10.2-8,14.3a.7.7,0,0,0,0,.55.68.68,0,0,0,.39.39c.08,0,.9.35,2,.75C1.78,18.26.14,21.82.29,24.1c.14,2,1,2.41,1.77,2.41l18.53.13h0a.7.7,0,0,0,.7-.62c0-.21.44-4.28-1-6.79.59-.08,1.24-.19,1.89-.32.71,1.1,2.7,3.76,5.08,3.76l.3,0c1.88-.18,3.44-2,4.65-5.45l4-.6A.61.61,0,0,0,36.28,15.4ZM31.53,9.17h1.26l-1.13,5.56-1.44-.22ZM20.79,17.24l-.2-2.75,10.06,1.45Zm-12.3-15c1.18-.4,4,.22,4.93.5a.75.75,0,0,0,.47,0A17.4,17.4,0,0,1,18.83,1.4c4.46,0,6.8,8.43,7.49,12.54l-6.49-1a.61.61,0,0,0-.69.63l.22,4.31H19c-1,0-2.9-2.72-4.09-5.25a.71.71,0,0,0-1.29,0c-1.9,4.83-3.11,4.69-4.95,4.47-.17,0-.34-.05-.52-.06a36.25,36.25,0,0,1-6.5-2C4.35,9.1,7.58,2.78,8.49,2.28Zm11.45,23L2.07,25.11C2,25.11,1.76,25,1.69,24,1.57,22.17,3,18.88,3.76,17.41A23.72,23.72,0,0,0,8,18.52l.49.06c2.26.27,3.94.12,5.83-4C15.27,16.35,17,19,18.65,19.3,19.9,20.59,20,23.58,19.94,25.23Zm7.53-4c-1.45.14-2.93-1.47-3.78-2.67l1-.25,5.95-.9C29.74,19.83,28.64,21.14,27.47,21.26Z"/></g></g></svg>